<svg id="Layer_1" data-name="Layer 1" xmlns="http://www.w3.org/2000/svg" viewBox="0 0 115.94 185.95"><defs><style>.cls-1,.cls-3{fill:#c2c1c0;stroke:#c2c1c0;}.cls-1,.cls-2,.cls-3{stroke-miterlimit:10;}.cls-1{stroke-width:2.55px;}.cls-2{fill:#293379;stroke:#293379;stroke-width:2.54px;}.cls-3{stroke-width:2.57px;}</style></defs><title>monogram</title><g id="Group_43" data-name="Group 43"><path id="Path_18" data-name="Path 18" class="cls-1" d="M185.55,153.81c0,34.94-28.89,63.27-64.53,63.27a65.81,65.81,0,0,1-19.66-3,57.08,57.08,0,0,1-19.08-9.68c-.76-.6-1.5-1.2-2.19-1.81L89,192.88c.77.7,1.49,1.3,2.16,1.82a42.08,42.08,0,0,0,9.32,5.67,32.73,32.73,0,0,0,5.1,1.77A62.77,62.77,0,0,0,121,204.43a51.12,51.12,0,0,0,13.59-1.78,45.61,45.61,0,0,0,11.5-5.29A58.77,58.77,0,0,0,161.79,183a51.09,51.09,0,0,0,8.55-15.88,47.93,47.93,0,0,0,2.31-13.32,45.89,45.89,0,0,0-3.35-18,49.14,49.14,0,0,0-11.92-17.23.67.67,0,0,1-.15-.14l9-9.82A62.43,62.43,0,0,1,185.55,153.81Z" transform="translate(-70.89 -32.4)"/><path id="Path_19" data-name="Path 19" class="cls-2" d="M152.58,96l-9.14,10a45.5,45.5,0,0,0-20.12-4.79,48.26,48.26,0,0,0-14.85,2.28,49.21,49.21,0,0,0-12.92,6.32A50.85,50.85,0,0,0,86,118.27v50.46L73.62,182.31V100.06L75,98.54l4.53-5.13,1.17-1.35,2.78-3.15L86,86v15.21A61.41,61.41,0,0,1,152.58,96Z" transform="translate(-70.89 -32.4)"/><path id="Path_20" data-name="Path 20" class="cls-3" d="M85.31,35.66V64L72.17,78.38V49.83l.77-.83,2.94-3.18,2.74-3,.93-1,.36-.38.89-1,1-1Z" transform="translate(-70.89 -32.4)"/></g></svg>